# xmcd
#
# Track frame offsets:
# 150
# 12771
# 21547
# 40468
#
# Disc length: 1250 seconds
#
#
# Revision: 0
# Processed by: cddbd v1.5.1PL0 Copyright (c) Steve Scherf et al.
# Submitted via: FreeRIP 2.90 
#
DISCID=2c04e004
DTITLE=Adam Green - Emily (single)
DYEAR=2005
DGENRE=Indie
TTITLE0=Emily
TTITLE1=The Rotary Shakes
TTITLE2=Crackhouse Blues (alternate version)
TTITLE3=Emily (video)
EXTD=
EXTT0=
EXTT1=
EXTT2=
EXTT3=
PLAYORDER=
